<svg width="20" height="20" viewBox="0 0 20 20" fill="none" xmlns="http://www.w3.org/2000/svg">
<path d="M3.84801 15.2287C3.4536 15.2287 3.09233 15.1326 2.7642 14.9403C2.43608 14.7448 2.17424 14.483 1.97869 14.1548C1.78646 13.8267 1.69034 13.4654 1.69034 13.071C1.69034 12.6733 1.78646 12.3104 1.97869 11.9822C2.17424 11.6541 2.43608 11.3923 2.7642 11.1967C3.09233 11.0012 3.4536 10.9034 3.84801 10.9034H5.00142V8.90483H3.84801C3.4536 8.90483 3.09233 8.80871 2.7642 8.61648C2.43608 8.42093 2.17424 8.16075 1.97869 7.83594C1.78646 7.50781 1.69034 7.14489 1.69034 6.74716C1.69034 6.34943 1.78646 5.98816 1.97869 5.66335C2.17424 5.33523 2.43608 5.07505 2.7642 4.88281C3.09233 4.68726 3.4536 4.58949 3.84801 4.58949C4.24574 4.58949 4.60866 4.68726 4.93679 4.88281C5.26491 5.07505 5.52675 5.33523 5.7223 5.66335C5.91785 5.98816 6.01562 6.34943 6.01562 6.74716V7.89062H8.0142V6.74716C8.0142 6.34943 8.11032 5.98816 8.30256 5.66335C8.49811 5.33523 8.75829 5.07505 9.0831 4.88281C9.41122 4.68726 9.77415 4.58949 10.1719 4.58949C10.5696 4.58949 10.9309 4.68726 11.2557 4.88281C11.5838 5.07505 11.844 5.33523 12.0362 5.66335C12.2318 5.98816 12.3295 6.34943 12.3295 6.74716C12.3295 7.14489 12.2318 7.50781 12.0362 7.83594C11.844 8.16075 11.5838 8.42093 11.2557 8.61648C10.9309 8.80871 10.5696 8.90483 10.1719 8.90483H9.02841V10.9034H10.1719C10.5696 10.9034 10.9309 11.0012 11.2557 11.1967C11.5838 11.3923 11.844 11.6541 12.0362 11.9822C12.2318 12.3104 12.3295 12.6733 12.3295 13.071C12.3295 13.4654 12.2318 13.8267 12.0362 14.1548C11.844 14.483 11.5838 14.7448 11.2557 14.9403C10.9309 15.1326 10.5696 15.2287 10.1719 15.2287C9.77415 15.2287 9.41122 15.1326 9.0831 14.9403C8.75829 14.7448 8.49811 14.483 8.30256 14.1548C8.11032 13.8267 8.0142 13.4654 8.0142 13.071V11.9176H6.01562V13.071C6.01562 13.4654 5.91785 13.8267 5.7223 14.1548C5.52675 14.483 5.26491 14.7448 4.93679 14.9403C4.60866 15.1326 4.24574 15.2287 3.84801 15.2287ZM3.84801 14.2145C4.06013 14.2145 4.25237 14.1631 4.42472 14.0604C4.60038 13.9576 4.73958 13.8201 4.84233 13.6477C4.94839 13.4721 5.00142 13.2798 5.00142 13.071V11.9176H3.84801C3.6392 11.9176 3.44697 11.9706 3.27131 12.0767C3.09896 12.1795 2.96141 12.3187 2.85866 12.4943C2.75592 12.6667 2.70455 12.8589 2.70455 13.071C2.70455 13.2798 2.75592 13.4721 2.85866 13.6477C2.96141 13.8201 3.09896 13.9576 3.27131 14.0604C3.44697 14.1631 3.6392 14.2145 3.84801 14.2145ZM3.84801 7.89062H5.00142V6.74716C5.00142 6.53504 4.94839 6.3428 4.84233 6.17045C4.73958 5.99811 4.60038 5.86056 4.42472 5.75781C4.25237 5.65507 4.06013 5.60369 3.84801 5.60369C3.6392 5.60369 3.44697 5.65507 3.27131 5.75781C3.09896 5.86056 2.96141 5.99811 2.85866 6.17045C2.75592 6.3428 2.70455 6.53504 2.70455 6.74716C2.70455 6.95928 2.75592 7.15317 2.85866 7.32883C2.96141 7.50118 3.09896 7.63873 3.27131 7.74148C3.44697 7.84091 3.6392 7.89062 3.84801 7.89062ZM9.02841 7.89062H10.1719C10.384 7.89062 10.5762 7.84091 10.7486 7.74148C10.9209 7.63873 11.0585 7.50118 11.1612 7.32883C11.264 7.15317 11.3153 6.95928 11.3153 6.74716C11.3153 6.53504 11.264 6.3428 11.1612 6.17045C11.0585 5.99811 10.9209 5.86056 10.7486 5.75781C10.5762 5.65507 10.384 5.60369 10.1719 5.60369C9.95975 5.60369 9.76586 5.65507 9.5902 5.75781C9.41785 5.86056 9.2803 5.99811 9.17756 6.17045C9.07813 6.3428 9.02841 6.53504 9.02841 6.74716V7.89062ZM10.1719 14.2145C10.384 14.2145 10.5762 14.1631 10.7486 14.0604C10.9209 13.9576 11.0585 13.8201 11.1612 13.6477C11.264 13.4721 11.3153 13.2798 11.3153 13.071C11.3153 12.8589 11.264 12.6667 11.1612 12.4943C11.0585 12.3187 10.9209 12.1795 10.7486 12.0767C10.5762 11.9706 10.384 11.9176 10.1719 11.9176H9.02841V13.071C9.02841 13.2798 9.07813 13.4721 9.17756 13.6477C9.2803 13.8201 9.41785 13.9576 9.5902 14.0604C9.76586 14.1631 9.95975 14.2145 10.1719 14.2145ZM6.01562 10.9034H8.0142V8.90483H6.01562V10.9034ZM18.687 4.34091L15.4057 16.5312H14.3319L17.6131 4.34091H18.687Z" fill="#1C1C1C" fill-opacity="0.2"/>
</svg>
